<svg xmlns="http://www.w3.org/2000/svg" width="27" height="28" fill="none"><path fill="#F17F3F" d="M.341 14c0-6.285 0-9.428 1.953-11.38C4.246.667 7.389.667 13.674.667c6.286 0 9.429 0 11.381 1.953 1.953 1.952 1.953 5.095 1.953 11.38 0 6.286 0 9.428-1.953 11.381-1.952 1.953-5.095 1.953-11.38 1.953-6.286 0-9.429 0-11.381-1.953C.34 23.428.34 20.286.34 14.001Z"/><path stroke="#251814" stroke-width="2" d="M19.985 14a6.316 6.316 0 1 1-12.632 0 6.316 6.316 0 0 1 12.632 0Z"/><path stroke="#251814" stroke-linecap="round" stroke-linejoin="round" stroke-width="2.667" d="M21.404 6.283h-.013"/></svg>