<svg xmlns="http://www.w3.org/2000/svg" width="197" height="17" fill="none"><path fill="#F17F3F" d="M69.802 13.3c6.123.348 12.246.671 18.362 1.048 8.626.534 17.237 1.12 25.825 1.815.579.046 1.383.032 1.363.383-.027.371-.866.288-1.417.28-10.255-.182-20.511-.257-30.753-.827-7.455-.415-14.949-.66-22.427-.963-1.846-.077-3.67-.192-5.463-.4-1.302-.154-2.383-.466-2.474-1.147-.083-.668.857-1.045 2.1-1.254 3.646-.617 7.538-.744 11.373-.928 10.955-.517 21.963-.788 32.992-.956 13.318-.2 26.636-.38 39.947-.638 13.827-.268 27.66-.537 41.421-1.195-5.989-.179-11.966-.54-17.966-.444-1.181.017-2.362.035-3.543.012-12.637-.233-25.258-.19-37.878-.137-13.403.053-26.8.213-40.183.429-13.783.22-27.545.569-41.321.851-9.24.187-18.493.353-27.732.53-2.82.054-5.631.151-8.45.176-1.376.01-3.335.175-3.553-.714-.197-.819 1.715-.742 2.94-.818 11.82-.726 23.736-1.111 35.638-1.534 14.192-.505 28.418-.84 42.657-1.082 10.166-.172 20.346-.267 30.532-.335 17.418-.118 34.84-.114 52.272.183 8.684.15 17.367.322 25.984.961a50.61 50.61 0 0 1 3.645.43c1.365.208 2.322.628 2.354 1.322.033.703-.973 1.085-2.266 1.303-2.339.397-4.834.536-7.299.659-8.99.456-18.02.709-27.071.905-10.682.233-21.357.482-32.038.696-7.667.155-15.348.247-23.015.396-11.529.223-23.058.472-34.55 1l-.006-.007Z"/></svg>