<svg xmlns="http://www.w3.org/2000/svg" width="195" height="11" fill="none"><path fill="#F17F3F" d="M66.24 7.45c5.81.311 11.619.607 17.42.938 8.185.468 16.355.972 24.502 1.548.549.038 1.312.039 1.293.273-.027.247-.823.18-1.345.168-9.73-.256-19.462-.44-29.178-.953-7.073-.374-14.183-.636-21.279-.936a99.612 99.612 0 0 1-5.182-.338c-1.235-.119-2.261-.342-2.346-.797-.078-.446.815-.685 1.994-.808 3.46-.364 7.154-.398 10.793-.47 10.395-.202 20.84-.239 31.304-.206 12.637.04 25.274.094 37.905.096 13.119.002 26.245.003 39.302-.255-5.681-.198-11.353-.517-17.046-.532-1.12-.003-2.241-.007-3.361-.037-11.99-.32-23.965-.457-35.939-.587-12.717-.14-25.43-.209-38.128-.24-13.078-.033-26.136.02-39.208.029-8.767.003-17.547-.007-26.313-.01-2.675 0-5.344.028-8.018.007-1.306-.01-3.165.073-3.37-.522-.186-.549 1.628-.473 2.79-.508 11.217-.329 22.523-.43 33.817-.556a3103.34 3103.34 0 0 1 40.476-.164c9.646.018 19.305.088 28.97.175 16.526.15 33.057.38 49.597.805 8.239.214 16.477.442 24.653.981 1.167.078 2.326.2 3.457.334 1.296.157 2.203.45 2.232.912.03.47-.925.711-2.152.84-2.22.234-4.587.294-6.926.343-8.531.187-17.099.238-25.688.25-10.135.016-20.264.043-30.399.045-7.275.004-14.563-.035-21.837-.036-10.94-.002-21.88.013-32.783.215l-.007-.004Z"/></svg>