<svg xmlns="http://www.w3.org/2000/svg" width="48" height="48" fill="none"><g clip-path="url(#a)"><path fill="#F17F3F" d="M27.75 27H40.5a1.5 1.5 0 0 0 1.5-1.5v-12a1.5 1.5 0 0 0-1.5-1.5H29.25a1.5 1.5 0 0 0-1.5 1.5V27ZM6 27h12.75a1.5 1.5 0 0 0 1.5-1.5v-12a1.5 1.5 0 0 0-1.5-1.5H7.5A1.5 1.5 0 0 0 6 13.5V27Z" opacity=".2"/><path stroke="#F17F3F" stroke-linecap="round" stroke-linejoin="round" stroke-width="2" d="M27.75 27H40.5a1.5 1.5 0 0 0 1.5-1.5v-12a1.5 1.5 0 0 0-1.5-1.5H29.25a1.5 1.5 0 0 0-1.5 1.5V30a7.5 7.5 0 0 0 7.5 7.5M6 27h12.75a1.5 1.5 0 0 0 1.5-1.5v-12a1.5 1.5 0 0 0-1.5-1.5H7.5A1.5 1.5 0 0 0 6 13.5V30a7.5 7.5 0 0 0 7.5 7.5"/></g><defs><clipPath id="a"><path fill="#fff" d="M48 0H0v48h48z"/></clipPath></defs></svg>