<svg xmlns="http://www.w3.org/2000/svg" width="76" height="36" fill="none"><path fill="#111418" d="M64.73 23.89c-1.947-1.11-3.572-2.092-5.246-2.977-2.833-1.514-5.699-2.882-8.998-3.107-3.349-.225-5.973 1.046-7.55 3.928-.967 1.771-1.45 3.8-2.078 5.731-.242.757-.274 1.594-.467 2.77-.966-1.482-1.706-2.657-2.495-3.8-1.915-2.8-3.718-5.683-5.81-8.339-2.849-3.654-6.438-3.96-10.012-.965-1.4 1.175-2.528 2.704-3.768 4.089-.37.418-.676.885-1.078 1.417-.724-3.14-1.368-6.134-2.124-9.08-1.77-6.875-7.275-6.633-11.187-3.622-1.047.805-1.916 1.883-2.77 2.914-.547.708-.66 1.626.13 2.221.707.548 1.448.161 2.06-.418.611-.564 1.191-1.175 1.851-1.659.773-.563 1.562-1.127 2.431-1.529 2.447-1.127 4.089-.548 5.087 1.964.708 1.77 1.158 3.654 1.625 5.506.434 1.722.788 3.477 1.142 5.232.193.901.418 1.803 1.4 2.109 1.127.354 1.803-.435 2.43-1.16.806-.917 1.466-1.947 2.32-2.817 1.062-1.11 2.157-2.205 3.364-3.123 1.642-1.24 2.833-1.175 4.282.29 1.384 1.4 2.72 2.913 3.863 4.523 2.43 3.462 4.731 6.987 7.033 10.529.547.837 1.142 1.417 2.157 1.223.965-.177 1.271-.966 1.4-1.851.226-1.578.387-3.188.693-4.75.274-1.368.58-2.768 1.095-4.056 1.37-3.445 3.494-4.54 7.132-3.912 2.737.466 5.296 1.448 7.726 2.752 1.755.934 3.445 1.98 5.151 2.978.902.532 1.835 1.079 2.833.29.934-.757.773-1.82.564-2.85-.096-.434-.257-.853-.402-1.271-.306-.837-.563-1.707-.95-2.512-2.832-6.005-.851-10.947 3.415-15.326.79-.805 1.836-1.369 2.785-2.012.467-.322 1.047-.516 1.466-.886.305-.258.644-.773.563-1.079-.08-.338-.596-.66-.934-.82-.74-.339-1.738-.242-2.446.048-1.4.58-2.817 1.272-3.977 2.221-2.576 2.093-4.363 4.83-5.667 7.89-1.111 2.607-.967 5.264-.114 7.888.58 1.706 1.288 3.348 2.076 5.409Z"/></svg>