<svg xmlns="http://www.w3.org/2000/svg" width="83" height="70" fill="none"><path fill="#111418" d="M66.823 44.06c-2.24-.093-4.14-.123-6.028-.262-3.204-.221-6.358-.582-9.275-2.143-2.957-1.586-4.506-4.057-4.313-7.337.121-2.014.788-3.99 1.282-5.96.197-.77.614-1.496 1.074-2.595-1.605.743-2.856 1.346-4.131 1.896-3.11 1.357-6.168 2.843-9.35 3.983-4.355 1.585-7.56-.061-8.999-4.496-.563-1.74-.706-3.634-1.022-5.466-.091-.551-.103-1.11-.162-1.773-2.28 2.276-4.415 4.472-6.62 6.568-5.148 4.886-9.686 1.759-11.403-2.87-.46-1.237-.624-2.613-.8-3.939-.088-.89.304-1.728 1.288-1.814.89-.088 1.313.632 1.524 1.448.22.803.386 1.629.689 2.388.356.888.725 1.784 1.248 2.587 1.476 2.254 3.175 2.634 5.354 1.036 1.54-1.125 2.921-2.483 4.3-3.804 1.282-1.23 2.513-2.528 3.745-3.828.642-.661 1.311-1.306 2.306-1.044 1.143.298 1.297 1.326 1.445 2.273.195 1.205.207 2.429.469 3.618.31 1.506.657 3.015 1.194 4.433.733 1.923 1.777 2.5 3.782 2.028 1.917-.452 3.852-1.026 5.675-1.783 3.897-1.644 7.719-3.41 11.55-5.19.907-.419 1.72-.594 2.477.108.724.663.565 1.494.204 2.313-.646 1.457-1.364 2.907-1.934 4.393-.494 1.305-.978 2.654-1.225 4.02-.67 3.645.55 5.701 3.967 7.1 2.567 1.057 5.257 1.584 8.01 1.769 1.982.14 3.97.15 5.945.21 1.046.028 2.128.06 2.555 1.258.39 1.137-.31 1.952-1.035 2.715-.312.317-.67.586-1.016.864-.703.547-1.383 1.147-2.138 1.624-5.587 3.586-6.532 8.826-5.241 14.802.241 1.1.829 2.134 1.292 3.184.225.52.613.992.772 1.528.122.38.135.997-.096 1.213-.247.244-.855.243-1.227.2-.806-.106-1.601-.718-2.047-1.34-.88-1.234-1.713-2.573-2.191-3.993-1.072-3.141-1.134-6.41-.615-9.694.442-2.8 1.975-4.975 4.09-6.746 1.397-1.139 2.869-2.154 4.631-3.482Z"/></svg>