<svg xmlns="http://www.w3.org/2000/svg" width="34" height="33" fill="none"><path fill="#F17F3F" stroke="#F17F3F" stroke-width=".1" d="M8.813 15.006c-1.008.186-1.777 1.057-1.777 2.098 0 .698.348 1.32.88 1.71a1.68 1.68 0 0 0 1.762.154c.583-.286.93-.835.93-1.475v-4.561c0-2.03 1.699-3.693 3.777-3.693h3.877c2.078 0 3.777 1.663 3.777 3.693v4.561c0 .64.346 1.19.93 1.475.583.286 1.24.229 1.762-.154.532-.39.88-1.012.88-1.71 0-1.04-.77-1.911-1.778-2.098a1.229 1.229 0 0 1-1.024-1.209v-.865c0-2.448-2.047-4.449-4.547-4.449h-3.877c-2.5 0-4.547 2.001-4.547 4.45v.864a1.23 1.23 0 0 1-1.025 1.209Zm0 0 .01.049m-.01-.05.01.05m0 0c-.986.182-1.737 1.033-1.737 2.049 0 .681.34 1.289.859 1.67h16.757c.52-.382.858-.989.858-1.67 0-1.015-.75-1.867-1.736-2.05a1.279 1.279 0 0 1-1.065-1.257v-.865c0-2.42-2.023-4.4-4.497-4.4h-3.877c-2.473 0-4.498 1.98-4.498 4.4v.865c0 .621-.44 1.142-1.065 1.258Zm19.759 8.863-11.203 2.936v-1.13h.882c2.5 0 4.548-2.001 4.548-4.45v-.05h-.771v.05c0 2.03-1.699 3.694-3.778 3.694h-3.876c-2.078 0-3.777-1.663-3.777-3.694v-.05h-.77v.05c0 2.449 2.047 4.45 4.547 4.45h.882v1.684l-9.099 2.385c-1.44.378-2.868.004-3.923-1.028-1.055-1.032-1.437-2.427-1.051-3.836l-.048-.013.048.013 3.003-10.963-.048-.013.048.013L7.2 3.002C7.585 1.594 8.629.572 10.07.193c1.442-.377 2.87-.003 3.924 1.029l8.204 8.026 8.204 8.025c1.055 1.032 1.438 2.427 1.052 3.836-.386 1.408-1.431 2.431-2.872 2.809Zm-7.165-10.936h.05v-.05c0-1.727-1.443-3.137-3.206-3.137h-3.877c-1.762 0-3.205 1.411-3.206 3.137v8.34c0 1.727 1.444 3.137 3.206 3.137h3.877c1.763 0 3.206-1.41 3.206-3.137v-.05h-6.663a.367.367 0 0 1-.37-.361c0-.198.166-.361.37-.361h6.663v-1.784h-5.112a.367.367 0 0 1-.37-.36c0-.199.166-.362.37-.362h5.112V16.21h-6.663a.367.367 0 0 1-.37-.36c0-.198.166-.362.37-.362h6.663v-1.784h-5.112a.367.367 0 0 1-.37-.36c0-.198.166-.362.37-.362h5.062ZM16.61 25.724v1.332l-.57.15v-1.482h.57Z"/><path fill="#F17F3F" stroke="#F17F3F" stroke-width=".1" d="M.987 30.715c1.597 1.332 3.722 1.808 5.778 1.269l22.414-5.876c2.083-.546 3.673-1.996 4.368-3.96-.254 1.847-1.456 3.427-3.159 4.204l-.01.004c-.329.142-.675.26-1.033.354l.013.048-.013-.048-22.414 5.876a7.29 7.29 0 0 1-.482.109c-2.053.373-4.155-.39-5.462-1.98Zm29.39-4.358Z"/></svg>