<svg xmlns="http://www.w3.org/2000/svg" width="28" height="28" fill="none"><g clip-path="url(#a)"><path fill="#fff" d="M25.36.667H2.636c-1.089 0-1.97.86-1.97 1.922v22.818c0 1.062.881 1.927 1.97 1.927H25.36c1.088 0 1.973-.865 1.973-1.922V2.589c0-1.063-.885-1.922-1.973-1.922ZM8.578 23.391H4.62V10.66h3.958v12.73ZM6.6 8.927a2.293 2.293 0 1 1 0-4.583 2.292 2.292 0 0 1 0 4.583Zm16.792 14.464h-3.953v-6.188c0-1.473-.026-3.375-2.058-3.375-2.057 0-2.37 1.61-2.37 3.271v6.292h-3.947V10.66h3.791v1.74h.052c.526-1 1.818-2.057 3.74-2.057 4.005 0 4.745 2.636 4.745 6.063v6.984Z"/></g><defs><clipPath id="a"><path fill="#fff" d="M.667.667h26.667v26.667H.667z"/></clipPath></defs></svg>