<svg xmlns="http://www.w3.org/2000/svg" width="122" height="142" fill="none"><path fill="#111418" d="M77.165 131.44c.835-.105 1.147 0 1.46-.105 19.083-11.514 32.014-27.842 36.915-49.823 1.251-5.547 1.042-11.304-.418-16.956-3.024-12.142-13.139-20.515-25.547-21.248-6.466-.419-12.722.314-18.353 3.873-.417 3.035-.73 6.07-1.356 8.897-1.043 4.605-3.441 8.373-7.716 10.676-3.129 1.78-6.257 1.78-7.926.105-2.19-2.198-2.19-5.13-.834-7.536 1.877-3.35 4.171-6.49 6.57-9.42 1.564-1.885 3.65-3.455 5.526-5.025-1.772-11.827-12.93-16.852-26.278-11.932-.417 1.675-.834 3.454-1.355 5.129-2.086 6.175-5.944 10.885-12.2 13.083-2.4.838-5.006 1.152-7.092-1.046-1.564-1.675-1.564-4.606.105-7.537 2.71-4.605 6.778-7.85 11.157-10.676 1.565-.942 3.129-1.884 4.693-2.721C32.43 10.86 16.059-2.118 0 5.208c.104-1.36 0-2.512.417-3.14.521-.732 1.669-1.15 2.607-1.36C11.888-.967 20.126.08 26.904 6.569c5.11 4.815 8.55 10.677 10.845 17.375.312.942.625 1.884 1.042 2.826 0 .105.209.21.626.524.938-.105 2.085-.105 3.233-.314 13.973-2.198 21.272 1.57 27.737 14.653 1.252-.418 2.712-.837 4.067-1.36 8.03-2.722 16.059-2.931 24.193-.21 13.243 4.396 21.794 15.805 22.732 30.25.522 7.85-.834 15.386-3.65 22.713-6.882 17.689-18.144 31.61-35.037 40.716-.834.524-1.773.942-2.607 1.466-.104.104-.208.314-.521.942 3.545.837 6.882.523 10.219.314 3.233-.105 6.57-.419 10.115-.628-.313 2.721-1.773 3.768-3.545 4.396-2.086.628-4.172 1.465-6.257 1.57-5.631.209-11.366.314-17.102 0-4.484-.314-5.735-2.722-3.754-6.385 4.276-7.746 8.655-15.491 13.035-23.237.73-1.256 1.668-2.302 2.816-3.768 1.98 2.303 1.147 3.978.417 5.548-2.92 5.652-5.527 11.304-8.343 17.48ZM21.69 46.972c7.195-.943 11.679-5.548 11.992-12.037-4.797 3.14-9.385 5.966-11.992 12.037Zm35.246 16.223c6.152-1.465 9.072-5.652 8.446-12.037-3.963 3.35-7.404 6.49-8.446 12.037Z"/></svg>