<svg xmlns="http://www.w3.org/2000/svg" width="122" height="6" fill="none"><path fill="#F17F3F" d="M43.477 4.59c3.815.124 7.629.237 11.439.376 5.374.197 10.74.421 16.09.7.362.018.862.005.853.18-.013.186-.536.151-.88.151-6.383-.008-12.767.037-19.147-.165-4.644-.148-9.31-.21-13.968-.302a57.185 57.185 0 0 1-3.404-.156c-.811-.066-1.488-.214-1.55-.554-.06-.333.522-.529 1.293-.643 2.264-.338 4.685-.433 7.07-.556 6.812-.346 13.66-.57 20.523-.742 8.287-.208 16.573-.405 24.856-.64 8.602-.246 17.209-.491 25.766-.93-3.728-.042-7.452-.175-11.185-.078-.735.018-1.47.036-2.205.034-7.868-.014-15.722.108-23.576.236-8.34.134-16.677.322-25.004.537-8.576.22-17.138.506-25.708.758-5.749.167-11.506.325-17.255.487-1.754.05-3.503.121-5.257.156-.856.017-2.074.114-2.218-.328-.13-.408 1.06-.385 1.821-.433 7.35-.458 14.762-.746 22.165-1.053C32.824 1.26 41.674.977 50.533.741c6.326-.167 12.66-.296 19-.412C80.37.129 91.214-.008 102.067 0c5.405.005 10.811.022 16.181.272a38.8 38.8 0 0 1 2.272.186c.852.093 1.452.295 1.479.642.027.351-.595.55-1.397.67-1.452.217-3.003.306-4.536.387-5.591.3-11.209.5-16.84.67-6.645.203-13.287.413-19.932.605-4.77.14-9.55.248-14.32.383-7.173.204-14.346.422-21.492.778l-.005-.003Z"/></svg>