<svg xmlns="http://www.w3.org/2000/svg" width="50" height="50" fill="none"><path fill="#1ED862" d="M39.788 22.269c-8.058-4.608-21.35-5.031-29.044-2.784-1.235.361-2.541-.31-2.916-1.5-.374-1.19.323-2.446 1.559-2.808 8.83-2.58 23.51-2.082 32.788 3.22 1.111.635 1.476 2.017.817 3.084-.66 1.07-2.095 1.423-3.204.788m-.264 6.824c-.565.883-1.765 1.16-2.68.618-6.719-3.976-16.964-5.128-24.912-2.805-1.03.3-2.12-.26-2.433-1.25a1.817 1.817 0 0 1 .148-1.429 1.937 1.937 0 0 1 1.152-.911c9.08-2.653 20.368-1.368 28.084 3.197.916.543 1.205 1.698.641 2.58Zm-3.059 6.553a1.577 1.577 0 0 1-.963.678 1.617 1.617 0 0 1-1.18-.178c-5.87-3.455-13.26-4.235-21.962-2.321a1.617 1.617 0 0 1-1.175-.192 1.534 1.534 0 0 1-.442-.402 1.472 1.472 0 0 1-.266-1.12 1.497 1.497 0 0 1 .635-.971 1.59 1.59 0 0 1 .555-.24c9.523-2.095 17.692-1.193 24.281 2.684.175.102.327.237.447.396a1.448 1.448 0 0 1 .07 1.666M25 .932C11.193.932 0 11.707 0 25c0 13.293 11.193 24.068 25 24.068S50 38.293 50 25C50 11.707 38.807.931 25 .931"/></svg>