<svg xmlns="http://www.w3.org/2000/svg" width="140" height="12" fill="none"><path fill="#F17F3F" d="M49.892 9.18c4.377.248 8.754.474 13.126.752 6.167.395 12.324.842 18.465 1.4.414.036.989.01.978.361-.015.372-.615.302-1.009.302-7.326-.017-14.652.073-21.973-.332-5.329-.295-10.684-.42-16.028-.603-1.32-.047-2.623-.133-3.907-.312-.93-.133-1.707-.428-1.78-1.108-.067-.666.6-1.057 1.485-1.286 2.598-.677 5.376-.866 8.113-1.111 7.818-.693 15.677-1.14 23.551-1.486 9.51-.414 19.02-.809 28.523-1.28 9.872-.49 19.749-.981 29.569-1.86-4.279-.083-8.553-.348-12.837-.156-.843.037-1.686.073-2.53.07-9.028-.03-18.04.215-27.053.47-9.572.27-19.138.644-28.694 1.075-9.84.441-19.666 1.012-29.501 1.516-6.597.334-13.204.65-19.8.974-2.013.1-4.02.243-6.033.312-.983.033-2.38.229-2.546-.656-.15-.816 1.216-.77 2.09-.866 8.434-.915 16.94-1.492 25.435-2.106 10.13-.732 20.286-1.296 30.453-1.767A1535.95 1535.95 0 0 1 79.792.657c12.437-.398 24.88-.673 37.334-.656 6.203.01 12.406.043 18.568.544.88.072 1.754.212 2.608.37.978.187 1.666.591 1.697 1.284.031.703-.683 1.101-1.604 1.34-1.666.434-3.446.613-5.205.776-6.415.6-12.862.998-19.324 1.34-7.626.404-15.247.825-22.873 1.21-5.474.278-10.958.494-16.432.766-8.232.408-16.463.842-24.664 1.555l-.005-.006Z"/></svg>