<svg xmlns="http://www.w3.org/2000/svg" width="50" height="50" fill="none"><path fill="url(#a)" fill-rule="evenodd" d="M49.017 42.65c-.484 1.187-1.6 2.856-3.2 4.043-.917.674-2.017 1.332-3.517 1.765-1.6.466-3.583.61-6.05.61h-22.5c-2.467 0-4.433-.16-6.05-.61-1.5-.433-2.6-1.075-3.517-1.765-1.583-1.171-2.716-2.856-3.2-4.043C.017 40.26 0 37.548 0 35.83V14.17c0-1.717.017-4.43.983-6.82.484-1.187 1.6-2.856 3.2-4.043C5.1 2.633 6.2 1.975 7.7 1.542c1.617-.45 3.583-.61 6.05-.61h22.5c2.467 0 4.433.16 6.05.61 1.5.433 2.6 1.075 3.517 1.765 1.583 1.17 2.716 2.856 3.2 4.043C50 9.74 50 12.469 50 14.17v21.66c0 1.718-.017 4.43-.983 6.82Z" clip-rule="evenodd"/><path fill="#fff" d="M29.283 29.99c-.067-.577-.267-.994-.667-1.38-.75-.754-2.067-1.251-3.617-1.251-1.55 0-2.866.481-3.616 1.251-.384.402-.6.803-.667 1.38-.133 1.123-.05 2.086.083 3.643.134 1.476.384 3.45.7 5.439.234 1.428.417 2.198.584 2.744.283.898 1.3 1.668 2.916 1.668 1.617 0 2.65-.786 2.917-1.668.167-.546.35-1.316.583-2.744a87.23 87.23 0 0 0 .7-5.44c.15-1.556.217-2.518.084-3.642Zm-.185-8.183c0 2.182-1.833 3.947-4.1 3.947-2.266 0-4.1-1.765-4.1-3.947 0-2.182 1.834-3.947 4.1-3.947 2.267 0 4.1 1.78 4.1 3.947Z"/><path fill="#fff" d="M24.949 6.26c-9.567.031-17.4 7.508-17.533 16.718-.1 7.461 4.85 13.847 11.766 16.19a.236.236 0 0 0 .317-.24c-.083-.578-.183-1.156-.25-1.733a.638.638 0 0 0-.35-.466c-5.467-2.294-9.283-7.573-9.217-13.686.084-8.023 6.884-14.554 15.2-14.618C33.4 8.361 40.35 15.004 40.35 23.187c0 6.05-3.8 11.248-9.217 13.542a.547.547 0 0 0-.35.466l-.25 1.733c-.033.176.15.304.317.24 6.85-2.31 11.767-8.6 11.767-15.981-.034-9.339-7.95-16.944-17.667-16.928Z"/><path fill="#fff" d="M24.548 11.875c-6.233.225-11.233 5.183-11.317 11.183-.05 3.948 2 7.446 5.15 9.515.15.097.367-.016.367-.192-.05-.69-.05-1.3-.017-1.942a.642.642 0 0 0-.233-.545c-1.917-1.733-3.083-4.204-3.017-6.932.134-4.813 4.15-8.729 9.15-8.921 5.434-.209 9.9 3.995 9.9 9.162 0 2.631-1.166 5.006-3.016 6.69a.75.75 0 0 0-.234.546c.034.626.017 1.236-.016 1.926-.017.176.2.305.366.192 3.1-2.037 5.15-5.487 5.15-9.37.017-6.386-5.533-11.569-12.233-11.312Z"/><defs><linearGradient id="a" x1="25" x2="25" y1=".932" y2="49.068" gradientUnits="userSpaceOnUse"><stop stop-color="#EDBDFF"/><stop offset="1" stop-color="#B964F2"/></linearGradient></defs></svg>