<svg xmlns="http://www.w3.org/2000/svg" width="27" height="28" fill="none"><g clip-path="url(#a)"><path fill="#F17F3F" d="M27 14C27 6.637 21.03.667 13.667.667 6.303.667.333 6.637.333 14c0 6.655 4.876 12.171 11.25 13.172v-9.317H8.198V14h3.385v-2.937c0-3.342 1.991-5.188 5.037-5.188 1.458 0 2.984.26 2.984.26v3.282h-1.681c-1.656 0-2.173 1.028-2.173 2.083V14h3.698l-.591 3.855H15.75v9.317C22.124 26.172 27 20.655 27 14Z"/></g><defs><clipPath id="a"><path fill="#fff" d="M.333.667H27v26.667H.333z"/></clipPath></defs></svg>